Coordinates
version=1
nRows=16
nColumns=40
inDegrees=yes

Units are S.I. units (second, meters, Newtons, ...)
Angles are in degrees.

endheader
time	pelvis_tilt	pelvis_list	pelvis_rotation	pelvis_tx	pelvis_ty	pelvis_tz	hip_flexion_r	hip_adduction_r	hip_rotation_r	knee_angle_r	knee_angle_r_beta	ankle_angle_r	subtalar_angle_r	mtp_angle_r	hip_flexion_l	hip_adduction_l	hip_rotation_l	knee_angle_l	knee_angle_l_beta	ankle_angle_l	subtalar_angle_l	mtp_angle_l	lumbar_extension	lumbar_bending	lumbar_rotation	arm_flex_r	arm_add_r	arm_rot_r	elbow_flex_r	pro_sup_r	wrist_flex_r	wrist_dev_r	arm_flex_l	arm_add_l	arm_rot_l	elbow_flex_l	pro_sup_l	wrist_flex_l	wrist_dev_l
     28.72042857	     -8.61111212	     -3.13467258	     -5.55297882	      0.84836731	      0.92008229	      0.41690600	     26.52087829	     -0.92510147	    -10.03993857	     15.65182586	     15.65182586	      3.82150210	      5.57464907	      1.90201482	     12.22326747	     -5.21095137	    -13.15723017	     21.22467789	     21.22467789	     17.82257707	    -14.30376519	      2.43928931	     -9.91246028	      4.35360041	      3.60306638	    -15.35362803	    -13.29403012	    -12.78174679	     33.72325577	     46.34626010	      0.00000000	      0.00000000	     29.49260312	    -20.56967256	     -8.53318479	     81.18874946	     47.93608039	      0.00000000	      0.00000000
     28.74085714	     -8.45692814	     -3.07776407	     -5.51906071	      0.84995127	      0.91963738	      0.42102894	     26.22526619	     -0.72202958	     -9.75899250	     16.31820218	     16.31820218	      4.12051357	      5.19300685	      1.33544911	     11.52934534	     -5.36735979	    -13.05454999	     21.28654221	     21.28654221	     18.07576656	    -14.42300157	      2.46974235	     -9.77290773	      4.59150406	      3.61041692	    -15.08861402	    -13.57855951	    -12.81035110	     33.91002805	     46.34163085	      0.00000000	      0.00000000	     29.06055323	    -20.11955265	     -8.63124519	     81.21682492	     47.94092212	      0.00000000	      0.00000000
     28.76128571	     -8.25845593	     -2.86118392	     -5.49210288	      0.85164529	      0.91913579	      0.42565152	     26.01660064	     -0.49770364	     -8.47076630	     17.22603231	     17.22603231	      3.29289524	      2.62128721	     -2.80095135	     10.81030872	     -5.38176456	    -12.93425507	     21.41708238	     21.41708238	     18.72264166	    -14.37481480	      3.35610108	     -9.69850698	      4.53792650	      3.10669393	    -14.53129931	    -13.82192885	    -12.58961582	     34.53445834	     46.28719061	      0.00000000	      0.00000000	     28.09000023	    -19.42854044	    -11.03960597	     82.12818365	     48.11563044	      0.00000000	      0.00000000
     28.78171429	     -7.95870937	     -2.89507017	     -5.33790709	      0.85359200	      0.91917111	      0.43036567	     25.60329281	     -0.27681619	     -8.36064209	     18.31521982	     18.31521982	      3.93056293	      2.08589249	     -3.32467939	      9.98758323	     -5.69399823	    -12.79539655	     21.54584044	     21.54584044	     18.79798081	    -14.41037325	      3.41619307	     -9.70932058	      4.84519429	      3.12149082	    -14.22299207	    -14.13283821	    -12.61121213	     34.55708606	     46.28956157	      0.00000000	      0.00000000	     27.46974823	    -18.98109262	    -10.87307050	     81.92362612	     48.09720461	      0.00000000	      0.00000000
     28.80214286	     -7.74596507	     -2.63119527	     -5.19612889	      0.85526158	      0.91893497	      0.43543431	     25.67037312	     -0.25602017	     -7.58415086	     20.02367178	     20.02367178	      4.61587687	      0.31184149	     -4.00308853	      9.38112581	     -5.76154888	    -12.76226847	     21.84234780	     21.84234780	     18.89829041	    -14.31578154	      3.53713978	     -9.64036282	      4.70452445	      3.02277772	    -13.65610645	    -14.33324157	    -12.61021019	     34.43964316	     46.29503178	      0.00000000	      0.00000000	     26.93134982	    -18.75889851	    -11.02162529	     81.56691559	     48.09773093	      0.00000000	      0.00000000
     28.82257143	     -7.44712559	     -2.63310407	     -4.96348427	      0.85703857	      0.91918511	      0.44069335	     25.25996206	     -0.00628755	     -7.32324653	     21.09425635	     21.09425635	      5.25586853	     -0.70083653	     -4.31812739	      8.78061447	     -6.15613913	    -12.57690952	     22.33615914	     22.33615914	     18.86357908	    -14.31082713	      3.56913386	     -9.70247176	      4.87109459	      2.96287609	    -13.14120474	    -14.63774329	    -12.67343689	     34.40007796	     46.30295857	      0.00000000	      0.00000000	     26.15455337	    -18.39090718	    -10.98972335	     81.11797652	     48.08268814	      0.00000000	      0.00000000
     28.84300000	     -7.27195073	     -2.53862366	     -4.67603091	      0.85853625	      0.91937916	      0.44608198	     24.98919716	      0.19408383	     -6.95620713	     22.09081088	     22.09081088	      5.90181368	     -1.98503369	     -4.34063639	      8.53765993	     -6.54565939	    -12.41898543	     23.17867720	     23.17867720	     18.73148725	    -14.18990311	      3.46590727	     -9.60496666	      4.87654394	      2.70469142	    -12.44755555	    -14.86537936	    -12.78584025	     34.29550583	     46.31641105	      0.00000000	      0.00000000	     25.26295058	    -18.14203611	    -11.00259976	     80.33231573	     48.06382976	      0.00000000	      0.00000000
     28.86342857	     -7.09356028	     -2.47423049	     -4.32328774	      0.85987488	      0.91981103	      0.45148900	     24.54786702	      0.38920278	     -6.86429549	     22.74487927	     22.74487927	      6.58440714	     -2.77551595	     -4.12857329	      8.48425444	     -7.03035596	    -12.20822056	     24.32671053	     24.32671053	     18.40313026	    -14.08506898	      3.21413060	     -9.54299569	      4.97242208	      2.41140481	    -11.73423355	    -15.11211231	    -12.94881174	     34.16184058	     46.33376734	      0.00000000	      0.00000000	     24.23071027	    -17.81903087	    -10.85690068	     79.32028931	     48.02944719	      0.00000000	      0.00000000
     28.88385714	     -6.87431695	     -2.39768059	     -3.93972823	      0.86101008	      0.92046759	      0.45684662	     23.98229342	      0.51708173	     -7.03588582	     23.19859703	     23.19859703	      7.23355377	     -3.09953441	     -3.99727087	      8.56994635	     -7.52948418	    -11.91356420	     25.73969910	     25.73969910	     17.89628956	    -14.12665575	      2.91106643	     -9.56854706	      4.99893719	      2.23199681	    -11.10153710	    -15.42140491	    -13.10301629	     34.16925371	     46.34576349	      0.00000000	      0.00000000	     23.16469752	    -17.45118813	    -10.56433456	     78.28792027	     47.98464422	      0.00000000	      0.00000000
     28.90428571	     -6.56144430	     -2.05790359	     -3.56844223	      0.86202684	      0.92158221	      0.46197467	     23.19740213	      0.37389142	     -7.15001053	     23.34107292	     23.34107292	      7.76507795	     -3.23604284	     -4.00458077	      8.62620953	     -7.72106509	    -11.63530507	     27.20103308	     27.20103308	     17.20242209	    -14.17422776	      2.75274469	     -9.72193894	      4.67991984	      2.19394661	    -10.64873885	    -15.68636032	    -13.18633329	     34.27362434	     46.34985968	      0.00000000	      0.00000000	     21.90892495	    -16.77862870	    -10.18497178	     77.48717993	     47.93662419	      0.00000000	      0.00000000
     28.92471429	     -6.64938430	     -2.21726823	     -2.99043518	      0.86224212	      0.92177379	      0.46702479	     22.85271114	      0.65550495	     -7.88050256	     23.49835702	     23.49835702	      8.41061397	     -3.06187654	     -3.73313562	      9.89453106	     -8.65966588	    -11.02894352	     29.95580063	     29.95580063	     16.39312063	    -14.44728232	      1.95971929	     -9.46938176	      5.04154661	      1.64713965	     -9.70447942	    -16.12116640	    -13.40467308	     34.44741884	     46.36111849	      0.00000000	      0.00000000	     20.77160916	    -16.78561457	     -9.64297626	     75.31326173	     47.85501585	      0.00000000	      0.00000000
     28.94514286	     -6.54094742	     -2.06123790	     -2.50384338	      0.86241002	      0.92258277	      0.47174793	     22.30394548	      0.56980824	     -8.56814628	     23.67103216	     23.67103216	      9.68760534	     -2.22037398	     -1.76678420	     10.81467394	     -9.17627439	    -10.59367567	     32.33650904	     32.33650904	     14.82942716	    -14.90469009	      0.06615605	     -9.34009060	      5.01801247	      2.16142047	     -9.18586729	    -16.45224438	    -14.09433887	     33.78989048	     46.41185271	      0.00000000	      0.00000000	     20.83331913	    -16.08797437	     -7.65391616	     70.72348206	     47.64446194	      0.00000000	      0.00000000
     28.96557143	     -6.39903246	     -1.98872935	     -1.97498951	      0.86229178	      0.92332673	      0.47615689	     21.60561804	      0.60065085	     -9.20570109	     23.53540997	     23.53540997	     10.18994049	     -1.86289270	     -1.79515146	     12.06271565	     -9.76692425	     -9.93875487	     35.31169560	     35.31169560	     13.79312333	    -15.38830385	     -0.25426012	     -9.40592689	      5.07373226	      1.88665812	     -8.36897558	    -16.94621483	    -14.32710265	     34.21925616	     46.41258876	      0.00000000	      0.00000000	     19.29797385	    -15.67293838	     -7.10261760	     69.16828716	     47.57008602	      0.00000000	      0.00000000
     28.98600000	     -6.25651070	     -1.82187828	     -1.46928253	      0.86195876	      0.92411948	      0.48015454	     20.91810206	      0.44744551	    -10.05502093	     23.43240336	     23.43240336	     10.93230819	     -0.88898721	     -1.33289551	     13.44305093	    -10.20239978	     -9.27021014	     38.42702506	     38.42702506	     12.83879775	    -15.92708232	     -0.04513419	     -9.35633365	      5.07286850	      2.22857238	     -7.77071118	    -17.43152415	    -14.89884830	     34.33617960	     46.42152765	      0.00000000	      0.00000000	     18.91753756	    -14.97228817	     -5.35244802	     64.63774245	     47.37650096	      0.00000000	      0.00000000
     29.00642857	     -6.03868165	     -1.81162496	     -0.99197789	      0.86142319	      0.92487885	      0.48395680	     20.11423496	      0.53958523	    -10.69597702	     23.20749408	     23.20749408	     11.37793824	     -0.45294817	     -1.43853123	     14.88619268	    -10.80878056	     -8.60648759	     41.69230294	     41.69230294	     11.78517959	    -16.53334524	     -0.04796631	     -9.52540187	      5.20664461	      2.13231483	     -6.77669621	    -18.09675544	    -15.07960939	     34.73455548	     46.42259674	      0.00000000	      0.00000000	     17.15333283	    -14.38700124	     -4.80991087	     62.94825846	     47.29796219	      0.00000000	      0.00000000
     29.02685714	     -5.82903516	     -1.77733961	     -0.53707055	      0.86073203	      0.92560276	      0.48733738	     19.30812200	      0.57858876	    -11.37222874	     22.95139150	     22.95139150	     11.83107930	      0.17801154	     -1.56900846	     16.38134481	    -11.33374356	     -7.97658964	     44.91193024	     44.91193024	     10.85659407	    -17.15745346	      0.24214956	     -9.62889171	      5.38655185	      2.00477181	     -5.57912751	    -18.76909051	    -15.20973811	     35.06491932	     46.42489743	      0.00000000	      0.00000000	     15.35089135	    -13.80547293	     -4.19817393	     60.61566906	     47.20421496	      0.00000000	      0.00000000
